<?xml version="1.0" encoding="UTF-8"?>
<!DOCTYPE svg PUBLIC "-//W3C//DTD SVG 1.1//EN" "http://www.w3.org/Graphics/SVG/1.1/DTD/svg11.dtd">
<!-- Creator: CorelDRAW -->
<svg xmlns="http://www.w3.org/2000/svg" xml:space="preserve" width="2048px" height="2048px" style="shape-rendering:geometricPrecision; text-rendering:geometricPrecision; image-rendering:optimizeQuality; fill-rule:evenodd; clip-rule:evenodd"
viewBox="0 0 2048 2048"
 xmlns:xlink="http://www.w3.org/1999/xlink">
 <defs>
  <style type="text/css">
   <![CDATA[
    .fil2 {fill:none}
    .fil1 {fill:#006064}
    .fil0 {fill:#00838F}
    .fil3 {fill:#336666}
    .fil10 {fill:#3D4E5D}
    .fil8 {fill:#465766}
    .fil11 {fill:#64ADE7}
    .fil13 {fill:#87B94C}
    .fil9 {fill:#939C9C}
    .fil7 {fill:#B4B9BD}
    .fil6 {fill:#BEC2C6}
    .fil12 {fill:#E5463A}
    .fil5 {fill:#C0D7E8;fill-rule:nonzero}
    .fil4 {fill:#E0EDFB;fill-rule:nonzero}
   ]]>
  </style>
   <clipPath id="id0">
    <path d="M1024 -0.0011811c565.541,0 1024,458.461 1024,1024 0,565.541 -458.461,1024 -1024,1024 -565.541,0 -1024,-458.461 -1024,-1024 0,-565.541 458.461,-1024 1024,-1024z"/>
   </clipPath>
 </defs>
 <g id="Layer_x0020_1">
  <metadata id="CorelCorpID_0Corel-Layer"/>
  <path class="fil0" d="M1024 -0.0011811c565.541,0 1024,458.461 1024,1024 0,565.541 -458.461,1024 -1024,1024 -565.541,0 -1024,-458.461 -1024,-1024 0,-565.541 458.461,-1024 1024,-1024z"/>
  <g style="clip-path:url(#id0)">
   <g id="_452523032">
    <path id="_4525049361" class="fil1" d="M2592.58 1876.13l1.58032 3.62599 1.52362 3.63662 1.46693 3.64607 1.41142 3.65551 1.35591 3.6626 1.30158 3.66851 1.24488 3.67323 1.19173 3.67677 1.13622 3.68032 1.08307 3.68032 1.02992 3.67914 0.975591 3.67914 0.923623 3.67559 0.870473 3.67205 0.818505 3.66614 0.765355 3.65906 0.714567 3.65197 0.66378 3.64252 0.611811 3.63307 0.562205 3.62008 0.511418 3.60709 0.46063 3.59292 0.412205 3.57756 0.361418 3.56103 0.314173 3.54213 0.264567 3.52323 0.0614174 0.988583 68.5406 68.5406 -18.1441 -18.1441 1.73858 1.53071 1.92166 1.74095 1.89685 1.76811 1.87323 1.7941 1.84843 1.82126 1.82362 1.84725 1.79764 1.87323 1.77402 1.89803 1.74803 1.92284 1.72205 1.94764 0.890552 1.02874 0.884646 1.03465 0.876379 1.04291 0.870473 1.04764 0.862205 1.05473 0.8563 1.06181 0.848032 1.06772 0.842127 1.07362 0.833859 1.07953 0.826772 1.08662 0.820867 1.0937 0.812599 1.09843 0.804331 1.10551 0.798426 1.11024 0.791339 1.11732 0.783071 1.12323 2.23701 3.30118 2.17441 3.34843 2.11063 3.39803 2.04685 3.44292 1.98307 3.48898 1.91693 3.53268 1.85079 3.5752 1.78583 3.61772 1.71851 3.65788 1.65236 3.69685 1.58268 3.73583 1.51654 3.77244 1.44685 3.80788 1.37717 3.84213 1.30748 3.87638 1.2378 3.90827 1.16575 3.93898 1.09488 3.96969 1.02284 3.99685 0.950788 4.0252 0.87756 4.05237 0.804331 4.07599 0.729922 4.10079 0.654331 4.12323 0.581103 4.14449 0.504331 4.16575 0.42874 4.18465 0.350788 4.20237 0.275197 4.2189 0.196063 4.23426 0.11811 4.24961 0.0401575 4.2626 -0.281103 10.9866 -0.831497 10.5673 -1.36417 10.1587 -1.88032 9.75473 -2.37874 9.35906 -2.86181 8.97048 -3.32599 8.59016 -3.77244 8.21575 -4.20355 7.85079 -4.61693 7.49174 -5.0126 7.13977 -5.39174 6.79607 -5.75315 6.46063 -6.09804 6.13111 -6.42638 5.80985 -6.73583 5.49449 -7.02875 5.18859 -7.30512 4.88859 -7.56379 4.59804 -7.80591 4.31221 -8.03032 4.03465 -8.2382 3.76536 -8.42835 3.50315 -8.60198 3.24922 -8.75788 3 -8.89607 2.76024 -9.0189 2.52756 -9.12284 2.30315 -9.21024 2.08465 -9.28111 1.87323 -9.33426 1.67126 -9.36969 1.4752 0 5.46142 0 23.9988 0 24.2823 0 23.9988 0 47.9658 -54 0 -44.6244 0 0 52.05 10.9973 10.9973 1.46575 1.60512 1.34173 1.7126 1.21063 1.81417 1.07244 1.90866 0.927166 1.99488 0.774804 2.0752 0.614174 2.14725 0.447638 2.21339 0.274016 2.27126 0.0933072 2.32205 -0.147638 2.92323 -0.433465 2.83937 -0.703938 2.74016 -0.962599 2.62795 -1.20354 2.49921 -1.43268 2.35748 -1.64528 2.20158 -1.84606 2.03032 -2.03032 1.84606 -2.20158 1.64528 -2.35748 1.43268 -2.49921 1.20354 -2.62795 0.962599 -2.74016 0.703938 -2.83937 0.433465 -2.92323 0.147638 -2.32205 -0.0933072 -2.27126 -0.274016 -2.21339 -0.447638 -2.14725 -0.615355 -2.0752 -0.773623 -1.99488 -0.927166 -1.90866 -1.07244 -1.81417 -1.21063 -1.7126 -1.34173 -1.60512 -1.46575 -10.9984 -10.9984 -203.772 0 -0.805512 2.05984 -0.956694 1.97835 -1.10079 1.88977 -1.2378 1.79528 -1.36654 1.69252 -1.49055 1.58268 -1.60512 1.46575 -1.7126 1.34173 -1.81417 1.21063 -1.90866 1.07244 -1.99488 0.927166 -2.0752 0.773623 -2.14725 0.615355 -2.21339 0.447638 -2.27126 0.274016 -2.32205 0.0933072 -2.32205 -0.0933072 -2.27126 -0.274016 -2.21339 -0.447638 -2.14725 -0.615355 -2.0752 -0.773623 -1.99488 -0.927166 -1.90866 -1.07244 -1.81417 -1.21063 -1.7126 -1.34173 -1.60512 -1.46575 -10.9984 -10.9984 -203.771 0 -0.805512 2.05984 -0.956694 1.97835 -1.10079 1.88977 -1.2378 1.79528 -1.36654 1.69252 -1.49055 1.58268 -1.60512 1.46575 -1.7126 1.34173 -1.81417 1.21063 -1.90866 1.07244 -1.99488 0.927166 -2.0752 0.773623 -2.14725 0.615355 -2.21339 0.447638 -2.27126 0.274016 -2.32205 0.0933072 -2.92323 -0.147638 -2.83937 -0.433465 -2.74016 -0.703938 -2.62795 -0.962599 -2.49921 -1.20354 -2.35748 -1.43268 -2.20158 -1.64528 -2.03032 -1.84606 -1.84606 -2.03032 -1132 -1132.01c-0.705119,-0.582284 -1.38189,-1.19764 -2.02795,-1.8437l-0.00236221 -0.00236221 -0.00236221 -0.00354331c-0.640158,-0.641339 -1.25197,-1.31221 -1.82953,-2.01142l-0.0141732 -0.0153543 -0.0141732 -0.0200788c-0.575197,-0.698032 -1.11969,-1.42441 -1.62638,-2.17441l-0.00472441 -0.00708662 -0.00472441 -0.00826772c-0.510237,-0.754725 -0.98504,-1.53662 -1.42323,-2.34095l-0.00472441 -0.00826772 -0.00472441 -0.00944883c-0.435827,-0.804331 -0.83504,-1.62992 -1.1941,-2.47914l-0.00472441 -0.0106299 -0.00354331 -0.0106299c-0.356693,-0.844489 -0.673229,-1.70788 -0.948426,-2.59016l-0.0106299 -0.0271654 -0.00708662 -0.0259843c-0.275197,-0.883465 -0.506693,-1.78583 -0.694489,-2.70473l-0.00236221 -0.00944883 -0.0011811 -0.00826772c-0.190158,-0.927166 -0.335433,-1.87087 -0.432284,-2.82874l0 -0.00236221 0 -0.00236221c-0.0980316,-0.960237 -0.147638,-1.93465 -0.147638,-2.92087 0,-0.78189 0.0307087,-1.55551 0.0933072,-2.32205 0.0318898,-0.393307 0.0708662,-0.784253 0.11811,-1.17284l-79.617 -79.617 0 -12.0225 -157.13 -157.13c-1.00512,-0.90945 -1.99961,-1.82953 -2.9811,-2.76024l-0.046063 -0.0437008c-0.967324,-0.916536 -1.92166,-1.84488 -2.86654,-2.78268l-0.0897638 -0.0897638c-1.86732,-1.85788 -3.69095,-3.75709 -5.47087,-5.69646l-0.0177165 -0.0188977 -0.0437008 -0.046063 -0.0496063 -0.0555119c-0.896457,-0.979135 -1.78228,-1.9689 -2.6563,-2.96811 -0.801969,-0.917717 -1.59331,-1.84252 -2.3752,-2.77559 -0.78189,-0.934253 -1.55315,-1.87559 -2.31496,-2.8252 -0.761812,-0.949607 -1.51417,-1.90748 -2.25591,-2.87362 -0.741733,-0.966142 -1.47402,-1.94055 -2.19567,-2.92205 -0.721654,-0.982678 -1.43386,-1.97244 -2.13543,-2.97047 -0.701575,-0.998032 -1.39252,-2.00433 -2.07284,-3.01772 -0.681497,-1.01339 -1.35,-2.03504 -2.01024,-3.06496 -0.659056,-1.02874 -1.30984,-2.06575 -1.94882,-3.11103 -0.638977,-1.04528 -1.26732,-2.09764 -1.88504,-3.15827 -0.617717,-1.06063 -1.22362,-2.12835 -1.82008,-3.20433 -0.596457,-1.0748 -1.18228,-2.15906 -1.7563,-3.24922 -0.575197,-1.09016 -1.13858,-2.18858 -1.69134,-3.2941 -0.552756,-1.10551 -1.09488,-2.21811 -1.6252,-3.33898 -0.530315,-1.12087 -1.05,-2.24882 -1.55906,-3.38386 -0.507874,-1.13504 -1.0063,-2.27835 -1.49291,-3.42756 -0.486615,-1.14921 -0.961418,-2.30669 -1.42441,-3.47126 -0.464174,-1.16457 -0.916536,-2.33504 -1.35709,-3.51378 -0.440552,-1.17874 -0.869292,-2.36339 -1.2874,-3.5563 -0.418111,-1.19291 -0.82441,-2.39292 -1.2189,-3.59882 -0.394488,-1.20591 -0.777166,-2.42008 -1.14803,-3.64016 -0.370866,-1.22008 -0.731103,-2.44725 -1.07835,-3.6815 -0.347244,-1.23425 -0.682678,-2.47559 -1.0063,-3.72284 -0.323622,-1.24725 -0.635434,-2.50158 -0.935434,-3.763 -0.3,-1.26142 -0.588189,-2.52874 -0.863386,-3.80315 -0.275197,-1.27441 -0.538583,-2.55591 -0.790158,-3.84331 -0.251575,-1.2874 -0.488977,-2.58189 -0.715749,-3.88229 -0.226772,-1.30039 -0.440552,-2.60788 -0.64252,-3.92126 -0.201969,-1.31339 -0.390945,-2.63386 -0.568111,-3.96024 -0.177165,-1.32638 -0.341339,-2.65748 -0.49252,-3.99685 -0.152362,-1.33819 -0.28937,-2.68465 -0.415748,-4.03583 -0.126378,-1.35118 -0.239764,-2.70827 -0.340158,-4.07244 -0.100394,-1.36299 -0.188977,-2.73307 -0.263386,-4.10906l-0.056693 -1.10433 -0.00944883 -0.185433 -0.00826772 -0.184252 -0.0496063 -1.10787 -0.00826772 -0.185433 -0.00708662 -0.184252 -0.0354331 -0.925985 -0.00708662 -0.185433 -0.00590552 -0.185433 -0.00708662 -0.186614 -0.00590552 -0.185433 -0.00590552 -0.185433 -0.00590552 -0.185433 -0.0165354 -0.558662 -0.00590552 -0.185433 -0.00472441 -0.186614 -0.00472441 -0.185433 -0.00472441 -0.186614 -0.00472441 -0.186614 -0.0129921 -0.559843 -0.00354331 -0.186614 -0.00472441 -0.186614 -0.00354331 -0.186614 -0.00354331 -0.186614 -0.00590552 -0.37441 -0.00354331 -0.186614 -0.00236221 -0.187795 -0.00354331 -0.186614 -0.00236221 -0.187795 -0.00236221 -0.186614 -0.00236221 -0.187795 -0.00354331 -0.375591 -0.00236221 -0.186614 -0.0011811 -0.187795 -0.00236221 -0.187795 -0.0011811 -0.187795 -0.0011811 -0.188977 -0.0011811 -0.187795 0 -0.187795 -0.00236221 -0.941339 0.00708662 -1.35945 0.0141732 -1.04646 0.00354331 -0.175984 0.00236221 -0.177165 0.00354331 -0.178347 0.00472441 -0.178347 0.00354331 -0.179528 0.0129921 -0.540945 0.00472441 -0.18189 0.00472441 -0.18189 0.00590552 -0.183071 0.00590552 -0.183071 0.0177165 -0.555119 0.00590552 -0.185433 0.00590552 -0.186614 0.00708662 -0.187795 0.00708662 -0.187795 0.00708662 -0.188977 0.0307087 -0.759449 0.00826772 -0.19252 0.00826772 -0.19252 0.00944883 -0.19252 0.00826772 -0.193701 0.00944883 -0.193701 0.00944883 -0.194882 0.00944883 -0.194882 0.00944883 -0.196063 0.00944883 -0.197244 0.0106299 -0.197244 0.0885827 -1.59921 0.101575 -1.63819c0.108662,-1.65 0.238583,-3.2941 0.390945,-4.93229 0.151181,-1.63819 0.325985,-3.27047 0.520867,-4.89567 0.196063,-1.62638 0.412205,-3.24567 0.650788,-4.85906 0.237402,-1.61339 0.496063,-3.21969 0.775985,-4.82008 0.279921,-1.60039 0.581103,-3.19488 0.903544,-4.78111 0.32126,-1.5874 0.664961,-3.16536 1.02756,-4.73859 0.362599,-1.57323 0.745276,-3.13937 1.14921,-4.69725 0.403937,-1.55906 0.827953,-3.10866 1.27205,-4.65237 0.444095,-1.5437 0.908268,-3.07914 1.39252,-4.60748 0.484252,-1.52835 0.987402,-3.04843 1.51063,-4.56142 0.52441,-1.51181 1.06536,-3.01536 1.62756,-4.51181 0.561024,-1.49646 1.14331,-2.98347 1.74331,-4.46339 0.6,-1.47874 1.22008,-2.95158 1.85788,-4.41378 0.638977,-1.46221 1.29567,-2.91496 1.97126,-4.35945 0.675591,-1.44449 1.37008,-2.88071 2.08229,-4.30748 0.712205,-1.42677 1.44331,-2.8441 2.19213,-4.25197 0.748819,-1.40906 1.51536,-2.80748 2.30079,-4.19646 0.784253,-1.38898 1.5874,-2.76732 2.40827,-4.1374 0.820867,-1.37008 1.65945,-2.72953 2.51457,-4.07953 0.855119,-1.35 1.72795,-2.68937 2.61851,-4.01929 0.889371,-1.32992 1.79764,-2.64921 2.72126,-3.95788 0.923623,-1.30866 1.86614,-2.60669 2.82402,-3.8941 0.957875,-1.2874 1.93228,-2.56418 2.92323,-3.83032 0.990946,-1.26614 1.99725,-2.52047 3.02126,-3.76418 1.02402,-1.2437 2.06339,-2.47559 3.11929,-3.69685 1.05591,-1.22126 2.12717,-2.43071 3.21496,-3.62835 1.0878,-1.19764 2.19095,-2.38465 3.30945,-3.55866 1.1185,-1.1752 2.25236,-2.3374 3.40158,-3.4878 1.14921,-1.15039 2.31378,-2.28898 3.4937,-3.41457 1.17874,-1.12677 2.37402,-2.24055 3.58347,-3.34134 1.20945,-1.10079 2.43425,-2.18977 3.67323,-3.26575 1.23898,-1.07599 2.49213,-2.13898 3.75945,-3.18898 1.21417,-1.0063 2.44016,-1.99843 3.68032,-2.97992 1.24016,-0.980316 2.49213,-1.95118 3.75709,-2.9067 1.26496,-0.956694 2.54292,-1.9004 3.83386,-2.83229 1.28976,-0.93189 2.5937,-1.85079 3.90827,-2.7567 1.31575,-0.905906 2.64331,-1.80118 3.98268,-2.6811 1.33937,-0.881103 2.69173,-1.74803 4.05473,-2.60197 1.36417,-0.853938 2.73898,-1.69488 4.12559,-2.52284 1.38662,-0.827953 2.78504,-1.64291 4.19528,-2.4437 1.41024,-0.800788 2.82992,-1.5874 4.2626,-2.36103 1.43268,-0.772442 2.87599,-1.53189 4.33111,-2.27717 1.45394,-0.745276 2.91969,-1.47756 4.39607,-2.19449 1.47638,-0.71693 2.96339,-1.41969 4.46103,-2.10827 1.49764,-0.688583 3.00591,-1.36299 4.52481,-2.02205 1.5189,-0.659056 3.04607,-1.30394 4.58504,-1.93347 1.53898,-0.630709 3.0874,-1.24488 4.64646,-1.84488 1.55906,-0.6 3.12756,-1.18583 4.70552,-1.75512 1.57795,-0.570473 3.16654,-1.12323 4.76339,-1.66181 1.59685,-0.538583 3.20551,-1.06181 4.82126,-1.56969 1.61575,-0.507874 3.23977,-1.00039 4.87441,-1.47638 1.63347,-0.475985 3.27756,-0.935434 4.92993,-1.37953 1.65236,-0.444095 3.31299,-0.872835 4.98189,-1.28386 1.67008,-0.412205 3.34725,-0.806694 5.03386,-1.18583 1.68662,-0.379134 3.38032,-0.740552 5.08347,-1.08662 1.70197,-0.346063 3.41339,-0.67441 5.13189,-0.986221 1.71851,-0.311811 3.44528,-0.607087 5.17914,-0.884646 1.73504,-0.277559 3.47717,-0.538583 5.22638,-0.78189 1.74921,-0.243307 3.50551,-0.468898 5.27008,-0.676772 1.76339,-0.209055 3.53622,-0.399213 5.31496,-0.572835 1.77874,-0.172441 3.56457,-0.328347 5.3563,-0.465355 1.79291,-0.137008 3.59055,-0.256299 5.39646,-0.357874 1.80591,-0.101575 3.61772,-0.184252 5.43662,-0.249213 1.8189,-0.0649607 3.64488,-0.111024 5.47559,-0.138189 0.179528,-0.928347 0.364961,-1.85433 0.553937,-2.77677 0.190158,-0.923623 0.383859,-1.84488 0.583465,-2.7626 0.199606,-0.918898 0.403937,-1.83307 0.612993,-2.74607 0.210236,-0.912993 0.424016,-1.82244 0.643701,-2.73071 0.219685,-0.908268 0.442914,-1.81417 0.672048,-2.71654 0.229134,-0.902363 0.462992,-1.80118 0.701575,-2.69882 0.238583,-0.897638 0.483071,-1.79291 0.731103,-2.68465 0.249213,-0.891733 0.501969,-1.7811 0.760631,-2.66811 0.258662,-0.887009 0.519685,-1.77047 0.787796,-2.65158 0.26811,-0.881103 0.539764,-1.75984 0.817323,-2.63622 0.277559,-0.876379 0.557481,-1.74921 0.844489,-2.61969 0.285827,-0.870473 0.578741,-1.73858 0.874016,-2.60315 0.295276,-0.864568 0.595276,-1.72559 0.900001,-2.58544 0.304725,-0.859843 0.615355,-1.71614 0.929528,-2.57008 0.314173,-0.853938 0.63189,-1.70551 0.955513,-2.55355 0.322441,-0.848032 0.650788,-1.6937 0.982678,-2.53583 0.33189,-0.842127 0.668504,-1.68189 1.00984,-2.51929 0.341339,-0.837402 0.686221,-1.67008 1.03583,-2.50158 0.349607,-0.831497 0.703938,-1.65945 1.06299,-2.48504 0.357874,-0.825591 0.721654,-1.64764 1.08898,-2.46732 0.367323,-0.819686 0.740552,-1.63583 1.11614,-2.44961 0.375591,-0.81378 0.755906,-1.6252 1.14095,-2.43307 0.38504,-0.807875 0.773623,-1.61221 1.16693,-2.41418 0.393307,-0.801969 0.790158,-1.60039 1.19173,-2.39646 0.401575,-0.796064 0.806694,-1.58858 1.21654,-2.37874 0.409843,-0.790158 0.82441,-1.57677 1.24252,-2.36103 0.418111,-0.783071 0.840946,-1.56378 1.26732,-2.34213 0.426378,-0.778347 0.8563,-1.55315 1.29095,-2.32441 0.434646,-0.77126 0.872835,-1.54016 1.31575,-2.30551 0.441733,-0.765355 0.890552,-1.52717 1.34055,-2.28662 0.451181,-0.758268 0.904725,-1.51417 1.36299,-2.26772 0.459449,-0.753544 0.921261,-1.50354 1.3878,-2.25 0.739371,-1.18347 1.48819,-2.35866 2.24646,-3.52559 0.759449,-1.16693 1.52717,-2.32677 2.30433,-3.47835 0.777166,-1.15158 1.56378,-2.29488 2.35984,-3.42992 0.797245,-1.13504 1.60276,-2.26299 2.41772,-3.3815 0.814961,-1.1185 1.63937,-2.22992 2.47205,-3.33307 0.833859,-1.10315 1.6748,-2.19685 2.52638,-3.28347 0.851575,-1.08662 1.71142,-2.16378 2.58071,-3.23386 0.868111,-1.0689 1.74685,-2.13071 2.63268,-3.18307 0.885827,-1.05236 1.7811,-2.09528 2.68465,-3.1311 0.903544,-1.03583 1.81536,-2.06339 2.73544,-3.0815 0.920079,-1.01929 1.84961,-2.02677 2.78622,-3.02835 0.936615,-1.00158 1.8815,-1.9937 2.83465,-2.97756 0.95315,-0.983859 1.91457,-1.95709 2.88425,-2.92323 0.969686,-0.966142 1.94528,-1.92284 2.93032,-2.87126 0.98504,-0.947245 1.97717,-1.88622 2.97756,-2.81693 1.00039,-0.929528 2.00788,-1.85079 3.02362,-2.7626 1.01575,-0.911812 2.03858,-1.81417 3.06851,-2.70827 1.02992,-0.892914 2.06693,-1.77756 3.11221,-2.65276 1.04528,-0.875198 2.09646,-1.74095 3.15591,-2.59725 1.05945,-0.8563 2.12599,-1.70433 3.19843,-2.54173 1.07362,-0.837402 2.15315,-1.66654 3.23977,-2.48504 1.08662,-0.819686 2.18032,-1.62874 3.27992,-2.42835 1.09961,-0.799607 2.2063,-1.58977 3.32008,-2.37047 1.11378,-0.780709 2.23347,-1.55079 3.35906,-2.31142 1.12559,-0.760631 2.25827,-1.51299 3.39685,-2.25473 1.13858,-0.741733 2.28425,-1.47284 3.43465,-2.19449 1.15039,-0.721654 2.30669,-1.43504 3.47008,-2.13662 1.16339,-0.702756 2.33268,-1.3937 3.5067,-2.0752 1.1752,-0.682678 2.35512,-1.35473 3.54095,-2.01614 1.18701,-0.661418 2.37756,-1.31339 3.5752,-1.95473 1.19764,-0.641339 2.39882,-1.27205 3.60709,-1.89331 1.20827,-0.62126 2.42126,-1.23189 3.64016,-1.83189 1.2189,-0.601182 2.44252,-1.18937 3.67087,-1.76929 1.22835,-0.578741 2.4626,-1.14921 3.7004,-1.70669 1.2378,-0.558662 2.4815,-1.10669 3.72992,-1.6441 1.24725,-0.537402 2.50158,-1.06417 3.75945,-1.58032 1.25787,-0.514961 2.51929,-1.02047 3.78662,-1.51536 1.26732,-0.493701 2.53937,-0.979135 3.81496,-1.45158 1.27559,-0.473622 2.55591,-0.935434 3.83977,-1.38662 1.28504,-0.451181 2.57362,-0.892914 3.86575,-1.32165 1.29331,-0.429922 2.58898,-0.848032 3.88937,-1.25551 1.30158,-0.407481 2.60551,-0.804331 3.91418,-1.18937 1.30866,-0.38504 2.62087,-0.759449 3.93662,-1.12205 1.31575,-0.362599 2.63504,-0.714567 3.95788,-1.05473 1.32284,-0.341339 2.64921,-0.669686 3.97914,-0.987402 1.32992,-0.317717 2.66339,-0.623623 3.99922,-0.918898 1.33701,-0.295276 2.67638,-0.578741 4.01929,-0.850394 1.34291,-0.271654 2.68819,-0.531496 4.03701,-0.780709 1.34882,-0.248032 2.7,-0.485433 4.05473,-0.711024 1.35473,-0.225591 2.71299,-0.43937 4.07244,-0.641339 1.36063,-0.201969 2.72126,-0.392126 4.08662,-0.570473 1.36417,-0.178347 2.73307,-0.344882 4.10315,-0.499607 1.37008,-0.154725 2.74134,-0.296457 4.11614,-0.427559 1.3748,-0.129921 2.75197,-0.249213 4.13032,-0.355512 1.37835,-0.106299 2.75906,-0.200788 4.14213,-0.283465 1.38307,-0.0814961 2.76732,-0.152362 4.15394,-0.210236 1.38662,-0.0578741 2.77441,-0.103937 4.16457,-0.137008 1.39016,-0.0330709 2.7815,-0.0555119 4.1752,-0.0637796 1.39252,-0.00944883 2.7874,-0.00472441 4.18347,0.011811 1.39606,0.0165354 2.79331,0.0448819 4.19174,0.0862205 1.39843,0.0413386 2.79803,0.0956694 4.19882,0.161811 1.40079,0.0661418 2.80276,0.145276 4.20591,0.237402 1.40197,0.0921261 2.80748,0.196063 4.21181,0.312992 1.40433,0.11811 2.80984,0.248032 4.21536,0.390945 0.904725,0.0921261 1.80827,0.188977 2.71418,0.291733 0.904725,0.102756 1.81181,0.210236 2.71654,0.323622 0.905906,0.113386 1.80945,0.231496 2.71536,0.355512 0.905906,0.124016 1.81063,0.252756 2.71654,0.387402 0.904725,0.134646 1.81181,0.274016 2.71772,0.419292 0.905906,0.145276 1.81063,0.296457 2.71654,0.452363 0.905906,0.155906 1.81063,0.317717 2.71654,0.484252 0.905906,0.167717 1.81063,0.338977 2.71536,0.516142 0.904725,0.177165 1.81063,0.360236 2.71536,0.549213 0.904725,0.188977 1.80945,0.382677 2.71418,0.582284 0.904725,0.199606 1.80827,0.405118 2.71299,0.615355 0.904725,0.211417 1.80827,0.426378 2.71181,0.647245 0.904725,0.222047 1.80709,0.448819 2.71063,0.681497 0.903544,0.232677 1.80591,0.470079 2.70827,0.713386 0.902363,0.243307 1.80473,0.49252 2.70591,0.747638 0.901182,0.253937 1.80236,0.516142 2.70355,0.78189 0.901182,0.265748 1.80118,0.536221 2.70118,0.81378 0.900001,0.276378 1.79882,0.561024 2.69764,0.849213 0.89882,0.288189 1.79764,0.581103 2.69528,0.881103 0.897638,0.3 1.79528,0.605906 2.69173,0.916536 0.896457,0.311811 1.7941,0.628347 2.68937,0.950788 0.895276,0.322441 1.79055,0.649607 2.68465,0.983859 0.894095,0.333071 1.78819,0.67441 2.6811,1.01929 0.892914,0.346063 1.78465,0.69567 2.67638,1.05236 0.890552,0.356693 1.7811,0.719292 2.67166,1.0878 0.889371,0.368504 1.77992,0.742914 2.66811,1.12323 0.88819,0.380315 1.7752,0.765355 2.66221,1.15748 0.887009,0.390945 1.77284,0.788977 2.65748,1.19173 0.885827,0.402756 1.76929,0.812599 2.65276,1.22717 0.883465,0.414567 1.76457,0.836221 2.64567,1.2626 0.881103,0.426378 1.76221,0.859843 2.64095,1.29803 0.879922,0.438189 1.75748,0.883465 2.63504,1.33347 1.4563,-1.75276 2.91969,-3.47835 4.3937,-5.17914 1.47402,-1.69961 2.95748,-3.37441 4.44922,-5.02205 1.49173,-1.64764 2.99292,-3.27047 4.50237,-4.86733 1.50945,-1.59567 3.02717,-3.16772 4.55315,-4.7126 1.52599,-1.54606 3.06142,-3.06614 4.60394,-4.56142 1.54252,-1.49528 3.09331,-2.96457 4.65237,-4.40906 1.55788,-1.44449 3.1252,-2.86536 4.69961,-4.26024 1.57323,-1.39488 3.15473,-2.76614 4.74331,-4.11142 1.58858,-1.34646 3.18544,-2.66693 4.78819,-3.96378 1.60276,-1.29685 3.2126,-2.57008 4.82835,-3.81851 1.61575,-1.24961 3.23859,-2.47205 4.86851,-3.67323 1.62874,-1.2 3.26575,-2.37756 4.90748,-3.53032 1.64173,-1.15276 3.29055,-2.28307 4.9441,-3.38859 1.65354,-1.10551 3.31418,-2.18858 4.97953,-3.24803 1.66417,-1.05945 3.33544,-2.0941 5.01142,-3.10748 1.67599,-1.01339 3.35788,-2.00315 5.04449,-2.97047 1.68543,-0.967324 3.37677,-1.91103 5.07284,-2.83347 1.69606,-0.922442 3.39685,-1.82008 5.10237,-2.69764 1.70551,-0.876379 3.41575,-1.7315 5.12953,-2.56418 1.71378,-0.832678 3.43111,-1.64291 5.15315,-2.43189 1.72205,-0.787796 3.44764,-1.55433 5.17678,-2.29961 1.72914,-0.745276 3.46299,-1.46811 5.19922,-2.16969 1.73622,-0.701575 3.47599,-1.38189 5.21811,-2.04095 1.74331,-0.659056 3.48898,-1.29567 5.23701,-1.91221 1.74921,-0.616536 3.49961,-1.21181 5.25355,-1.78701 1.75276,-0.574016 3.50906,-1.12913 5.26772,-1.66299 1.75866,-0.533859 3.51969,-1.04528 5.28189,-1.5378 1.76221,-0.49252 3.52796,-0.96378 5.2937,-1.41614 1.76575,-0.452363 3.53386,-0.883465 5.30315,-1.29567 1.76929,-0.411024 3.53977,-0.804331 5.31142,-1.17638 1.77165,-0.372048 3.54331,-0.724016 5.31733,-1.05709 1.77402,-0.333071 3.54803,-0.646063 5.32323,-0.940158 1.02992,-0.17126 2.05984,-0.335433 3.08977,-0.49252 1.02992,-0.157087 2.05984,-0.308268 3.08977,-0.452363 1.02992,-0.144095 2.05984,-0.282284 3.08977,-0.413386 1.02992,-0.131102 2.05866,-0.257481 3.08859,-0.375591 1.02992,-0.11811 2.05866,-0.230315 3.08859,-0.336614 1.02992,-0.106299 2.05984,-0.205512 3.08859,-0.298819 1.02874,-0.0921261 2.05748,-0.179528 3.08622,-0.259843 1.02874,-0.080315 2.0563,-0.154725 3.08386,-0.223229 1.02874,-0.068504 2.05512,-0.129921 3.08268,-0.185433 1.02638,-0.0555119 2.05394,-0.103937 3.08032,-0.147638 1.02638,-0.0425197 2.05276,-0.080315 3.07796,-0.111024 1.0252,-0.0307087 2.0504,-0.0555119 3.07441,-0.0744095 1.02402,-0.0188977 2.04921,-0.0318898 3.07205,-0.0389764 1.02402,-0.00708662 2.04567,-0.00708662 3.06733,-0.00236221 1.02165,0.00590552 2.04331,0.0165354 3.06378,0.034252 1.02165,0.0177165 2.04095,0.0401575 3.06024,0.0696851 1.01929,0.0295276 2.03622,0.0625985 3.05433,0.103937 1.01811,0.0401575 2.03504,0.0885827 3.05079,0.140551 1.01575,0.0531496 2.03032,0.109843 3.04488,0.173622 1.01339,0.0637796 2.02677,0.133465 3.03898,0.209055 1.01221,0.0755906 2.02323,0.157087 3.03307,0.243307 1.00984,0.0874016 2.01969,0.179528 3.02717,0.277559 1.00748,0.0980316 2.01378,0.201969 3.02008,0.311811 1.0063,0.109843 2.01024,0.223229 3.01418,0.343701 1.00276,0.120473 2.00551,0.246851 3.00591,0.377953 1.00039,0.131102 2.00079,0.26811 2.99882,0.411024 0.998032,0.141732 1.99606,0.290551 2.99173,0.444095 0.99567,0.153543 1.98898,0.311811 2.98229,0.475985 0.992127,0.164173 1.98425,0.333071 2.97402,0.507874 0.989765,0.174803 1.97835,0.354331 2.96575,0.539764 0.987402,0.185433 1.97244,0.375591 2.9563,0.571654 0.983859,0.196063 1.96654,0.396851 2.94685,0.603544 1.22953,0.258662 2.45551,0.525591 3.67914,0.799607 1.2248,0.275197 2.44606,0.5563 3.66378,0.846851 1.2189,0.290551 2.43307,0.589371 3.64607,0.896457 1.21181,0.305906 2.42362,0.620079 3.62953,0.94252 1.20709,0.322441 2.40945,0.650788 3.61063,0.988583 1.20118,0.337796 2.39882,0.682678 3.59292,1.03583 1.1941,0.35315 2.38583,0.713386 3.57402,1.08189 1.18819,0.367323 2.37166,0.744095 3.55276,1.12677 1.1811,0.382677 2.35866,0.773623 3.53268,1.17165 1.17402,0.398032 2.34449,0.80315 3.51142,1.21536 1.16693,0.412205 2.33032,0.831497 3.49016,1.25906 1.15984,0.427559 2.31614,0.861024 3.46772,1.30276 1.15158,0.441733 2.29961,0.88819 3.4441,1.3441 1.14449,0.455906 2.28425,0.918898 3.42048,1.3878 1.13504,0.470079 2.26772,0.946064 3.39567,1.42913 1.12795,0.483071 2.25118,0.972048 3.37087,1.46929 1.1185,0.497244 2.23583,1.00039 3.34607,1.51063 1.11024,0.510237 2.21693,1.02638 3.3189,1.54961 1.10197,0.523229 2.19921,1.05473 3.29173,1.59095 1.09252,0.536221 2.1815,1.07953 3.26457,1.62874 1.08307,0.549213 2.16142,1.10551 3.23504,1.66772 1.07362,0.562205 2.1437,1.13032 3.20788,1.70551 1.06417,0.575197 2.12244,1.15512 3.17717,1.74213 1.05473,0.587008 2.10354,1.1811 3.14764,1.77992 1.0441,0.6 2.08347,1.20473 3.11693,1.81654 1.03347,0.61063 2.06221,1.22835 3.08504,1.85197 1.02284,0.623623 2.04095,1.25315 3.05315,1.88858 1.01221,0.635434 2.01851,1.27559 3.02008,1.92166 1.00158,0.647245 1.99725,1.29921 2.98701,1.95709 0.989765,0.659056 1.9748,1.32165 2.95276,1.99134 0.979135,0.669686 1.95,1.34291 2.91733,2.02323 0.967324,0.680315 1.92756,1.36654 2.88307,2.05748 1.20118,0.869292 2.39173,1.74685 3.56929,2.63386l0.0555119 0.0413386c3.51496,2.64449 6.93071,5.36575 10.2473,8.1567l0.00472441 0.00354331 0.00472441 0.00354331c2.2004,1.85197 4.35709,3.73347 6.47245,5.64567l0.0649607 0.0578741 0.0744095 0.068504c1.03465,0.936615 2.05984,1.88032 3.07441,2.8311l0.046063 0.0437008c2.0811,1.95118 4.11851,3.93071 6.11457,5.93741l0.0141732 0.0141732 0.0165354 0.0177165c0.996851,1.00276 1.98189,2.01024 2.95748,3.02599l0.011811 0.0129921c0.977954,1.01811 1.94291,2.04213 2.89961,3.07205l0.00826772 0.00826772 0.0106299 0.011811c0.94252,1.01575 1.87323,2.0374 2.79567,3.06614l0.0448819 0.0496063 0.0425197 0.0484252c0.924804,1.03228 1.84016,2.07166 2.74488,3.11575l1135.88 1135.88 -24.8292 -24.8292 0.734646 0.629528 3.23859 2.87599 3.17244 2.92205 3.10748 2.96575 3.0437 3.00709 2.97874 3.04961 2.91496 3.0874 2.85118 3.12756 2.7874 3.16418 2.72481 3.20079 2.66221 3.23504 2.59961 3.26929 2.53701 3.3 2.47559 3.33189 2.41536 3.36142 2.35276 3.39095 2.29252 3.41693 2.23229 3.44292 2.17205 3.46772 2.11299 3.49134 2.05276 3.5126 1.9937 3.53386 1.93465 3.55394 1.87559 3.57166 1.8189 3.58937 1.75984 3.60355 1.70315 3.62008 1.64528 3.63189z"/>
   </g>
  </g>
  <path class="fil2" d="M1024 -0.0011811c565.541,0 1024,458.461 1024,1024 0,565.541 -458.461,1024 -1024,1024 -565.541,0 -1024,-458.461 -1024,-1024 0,-565.541 458.461,-1024 1024,-1024z"/>
  <g id="_440593792">
   <path id="_440605672" class="fil3" d="M1023.84 1368.68l0 44.1662c2.98701,-0.115748 6.12993,-0.178347 9.37442,-0.178347 3.24567,0 6.38859,0.0625985 9.3756,0.178347l0 -44.1662 -18.75 0z"/>
   <path id="_440607016" class="fil3" d="M761.983 1337.63l0 75.2197c2.98819,-0.115748 6.12993,-0.178347 9.3756,-0.178347 3.24567,0 6.38741,0.0625985 9.3756,0.178347l0 -75.2197 -18.7512 0z"/>
   <path id="_440580256" class="fil3" d="M1285.7 1337.63l0 75.2197c2.98701,-0.115748 6.12993,-0.178347 9.37442,-0.178347 3.24567,0 6.38859,0.0625985 9.3756,0.178347l0 -75.2197 -18.75 0z"/>
   <path id="_440594968" class="fil3" d="M788.458 1426l227.538 0c-0.654331,2.98701 -1.0063,6.12993 -1.0063,9.3756 0,3.24449 0.351969,6.38741 1.0063,9.37442l-227.538 0 0 -18.75zm265.166 0l223.467 0 0 18.75 -223.467 0c0.655512,-2.98701 1.00748,-6.12993 1.00748,-9.37442 0,-3.24567 -0.351969,-6.38859 -1.00748,-9.3756z"/>
   <path id="_440596864" class="fil3" d="M1033.21 1424.03c6.26693,0 11.3457,5.07874 11.3457,11.3457 0,6.26575 -5.07874,11.3457 -11.3457,11.3457 -6.26575,0 -11.3457,-5.07993 -11.3457,-11.3457 0,-6.26693 5.07993,-11.3457 11.3457,-11.3457zm0 -17.2488c15.7925,0 28.5945,12.802 28.5945,28.5945 0,15.7925 -12.802,28.5945 -28.5945,28.5945 -15.7925,0 -28.5945,-12.802 -28.5945,-28.5945 0,-15.7925 12.802,-28.5945 28.5945,-28.5945z"/>
   <path id="_440606992" class="fil3" d="M1295.07 1424.03c6.26693,0 11.3457,5.07874 11.3457,11.3457 0,6.26575 -5.07874,11.3457 -11.3457,11.3457 -6.26575,0 -11.3457,-5.07993 -11.3457,-11.3457 0,-6.26693 5.07993,-11.3457 11.3457,-11.3457zm0 -17.2488c15.7925,0 28.5945,12.802 28.5945,28.5945 0,15.7925 -12.802,28.5945 -28.5945,28.5945 -15.7925,0 -28.5945,-12.802 -28.5945,-28.5945 0,-15.7925 12.802,-28.5945 28.5945,-28.5945z"/>
   <path id="_440601280" class="fil3" d="M771.358 1424.03c6.26575,0 11.3457,5.07874 11.3457,11.3457 0,6.26575 -5.07993,11.3457 -11.3457,11.3457 -6.26693,0 -11.3457,-5.07993 -11.3457,-11.3457 0,-6.26693 5.07874,-11.3457 11.3457,-11.3457zm0 -17.2488c15.7925,0 28.5945,12.802 28.5945,28.5945 0,15.7925 -12.802,28.5945 -28.5945,28.5945 -15.7925,0 -28.5945,-12.802 -28.5945,-28.5945 0,-15.7925 12.802,-28.5945 28.5945,-28.5945z"/>
   <path id="_440595904" class="fil4" d="M637.864 1232.17c-10.598,0.00826772 -16.7681,0.0141732 -28.6559,-1.83189 -48.1406,-7.49174 -88.7127,-29.0929 -117.202,-61.6878 -27.9307,-31.9571 -44.0067,-73.969 -44.0067,-123.105 0,-3.57048 0.147638,-7.57914 0.437008,-12 3.47244,-52.7918 29.3918,-99.7123 69.9556,-133.315 38.8347,-32.1685 91.1257,-52.0949 149.726,-52.9784 5.74134,-29.7036 16.6642,-56.8288 31.5886,-80.7225 23.648,-37.8603 57.3095,-67.6855 96.3024,-86.8938 38.9847,-19.2047 83.315,-27.8091 128.307,-23.2335 28.9512,2.94449 58.0914,11.2854 86.1627,25.6973 46.5685,-56.0788 102.813,-85.2355 159.611,-94.6465 74.2501,-12.3012 149.035,9.64843 203.975,49.4079 38.4307,27.8114 65.3871,64.5804 82.6359,103.391 17.1579,38.6067 24.6083,79.3442 24.1382,115.249 33.4713,13.578 61.1575,36.8327 81.4217,66.0957 24.1984,34.9429 37.7398,78.4146 37.7398,123.949 0,152.612 -158.11,186.721 -279.05,186.705l-683.086 -0.080315z"/>
   <path id="_440585200" class="fil5" d="M637.864 1232.17c-10.598,0.00826772 -16.7681,0.0141732 -28.6559,-1.83189 -48.1406,-7.49174 -88.7127,-29.0929 -117.202,-61.6878 -25.6453,-29.3421 -41.2949,-67.1623 -43.6843,-111.189 18.4335,67.617 83.4709,116.852 163.524,116.852 85.1646,0 159.253,-55.7221 180.295,-130.017 134.092,57.3697 271.051,-21.6437 260.377,-156.494 36.4796,37.6004 49.9063,77.5737 133.208,85.3701 83.3032,7.79646 204.001,-72.2434 204.001,-184.91 0,-83.5902 -50.2843,-160.133 -122.249,-198.383 39.3296,8.26654 76.0276,24.8669 106.586,46.9807 38.4307,27.8114 65.3871,64.5804 82.6359,103.391 17.1579,38.6067 24.6083,79.3442 24.1382,115.249l1.00394 0.413386 0.0401575 1.23189c2.7378,96.0733 -56.1544,169.019 -112.619,202.94 122.199,-24.4288 168.063,-99.0355 179.595,-155.715 4.77048,5.46851 9.24331,11.2205 13.402,17.2264 24.1984,34.9429 37.7398,78.4146 37.7398,123.949 0,152.612 -158.11,186.721 -279.05,186.705l-683.086 -0.080315z"/>
   <rect id="_440590576" class="fil6" x="901.215" y="858.049" width="264.001" height="528.003"/>
   <rect id="_440597944" class="fil7" x="1033.22" y="858.049" width="132.001" height="528.003"/>
   <rect id="_440594176" class="fil7" x="901.215" y="1122.28" width="264.001" height="29.3332"/>
   <rect id="_440605120" class="fil8" x="901.215" y="918.32" width="264.001" height="29.3332"/>
   <rect id="_440604880" class="fil8" x="901.215" y="976.758" width="264.001" height="29.3332"/>
   <polygon id="_440580856" class="fil9" points="1033.21,1122.28 1033.21,1151.61 1165.22,1151.61 1165.22,1122.28 "/>
   <polygon id="_440587024" class="fil9" points="1033.21,947.539 1033.21,976.872 1165.22,976.872 1165.22,947.539 "/>
   <polygon id="_440596408" class="fil10" points="1033.21,947.539 1033.21,918.207 1165.22,918.207 1165.22,947.539 "/>
   <polygon id="_440610376" class="fil10" points="1033.21,1006.2 1033.21,976.872 1165.22,976.872 1165.22,1006.2 "/>
   <polygon id="_440585680" class="fil11" points="982.53,1122.28 982.53,1151.61 901.215,1151.61 901.215,1122.28 "/>
   <rect id="_440582944" class="fil7" x="901.215" y="1180.93" width="264.001" height="29.3332"/>
   <rect id="_440597416" class="fil7" x="901.215" y="1239.08" width="264.001" height="29.3332"/>
   <rect id="_440583904" class="fil7" x="901.215" y="1298.1" width="264.001" height="29.3332"/>
   <polygon id="_440589592" class="fil9" points="1033.21,1180.93 1033.21,1210.27 1165.22,1210.27 1165.22,1180.93 "/>
   <polygon id="_440581096" class="fil9" points="1033.21,1239.08 1033.21,1268.42 1165.22,1268.42 1165.22,1239.08 "/>
   <polygon id="_440586184" class="fil9" points="1033.21,1298.1 1033.21,1327.43 1165.22,1327.43 1165.22,1298.1 "/>
   <polygon id="_440595424" class="fil8" points="967.215,1373.2 967.215,1386.05 1099.22,1386.05 1099.22,1373.2 "/>
   <polygon id="_440601016" class="fil11" points="982.53,1180.93 982.53,1210.27 901.215,1210.27 901.215,1180.93 "/>
   <polygon id="_440600680" class="fil11" points="982.53,1239.08 982.53,1268.42 901.215,1268.42 901.215,1239.08 "/>
   <polygon id="_440604688" class="fil11" points="982.53,1298.1 982.53,1327.43 901.215,1327.43 901.215,1298.1 "/>
   <ellipse id="_440608432" class="fil8" cx="1033.22" cy="962.205" rx="35.2034" ry="35.2035"/>
   <path id="_440595160" class="fil10" d="M1033.21 962.205l0 -35.2028c19.4433,0 35.204,15.7606 35.204,35.2028 0,19.4433 -15.7606,35.204 -35.204,35.204l0 -35.204z"/>
   <ellipse id="_440609368" class="fil7" cx="1033.22" cy="962.205" rx="15.9111" ry="15.9111"/>
   <circle id="_440580064" class="fil10" cx="1033.22" cy="962.205" r="7.3839"/>
   <circle id="_440601520" class="fil12" cx="1119.44" cy="933.559" r="7.83863"/>
   <circle id="_440586304" class="fil13" cx="1119.44" cy="991.425" r="7.83863"/>
   <rect id="_440593480" class="fil6" x="663.358" y="920.26" width="216" height="432"/>
   <rect id="_440603848" class="fil7" x="771.358" y="920.26" width="108" height="432"/>
   <rect id="_440587864" class="fil7" x="663.358" y="1136.45" width="216" height="23.9997"/>
   <rect id="_440592040" class="fil8" x="663.358" y="969.573" width="216" height="23.9997"/>
   <rect id="_440601592" class="fil8" x="663.358" y="1017.39" width="216" height="23.9997"/>
   <polygon id="_440582032" class="fil9" points="771.358,1136.45 771.358,1160.45 879.359,1160.45 879.359,1136.45 "/>
   <polygon id="_440591488" class="fil9" points="771.358,993.479 771.358,1017.48 879.359,1017.48 879.359,993.479 "/>
   <polygon id="_440596600" class="fil10" points="771.358,993.479 771.358,969.48 879.359,969.48 879.359,993.479 "/>
   <polygon id="_440602552" class="fil10" points="771.358,1041.48 771.358,1017.48 879.359,1017.48 879.359,1041.48 "/>
   <polygon id="_440601160" class="fil11" points="729.89,1136.45 729.89,1160.45 663.358,1160.45 663.358,1136.45 "/>
   <rect id="_440604712" class="fil7" x="663.358" y="1184.44" width="216" height="23.9997"/>
   <rect id="_440606152" class="fil7" x="663.358" y="1232.01" width="216" height="23.9997"/>
   <rect id="_440610208" class="fil7" x="663.358" y="1280.3" width="216" height="23.9997"/>
   <polygon id="_440609968" class="fil9" points="771.358,1184.44 771.358,1208.44 879.359,1208.44 879.359,1184.44 "/>
   <polygon id="_440609128" class="fil9" points="771.358,1232.01 771.358,1256.01 879.359,1256.01 879.359,1232.01 "/>
   <polygon id="_440608456" class="fil9" points="771.358,1280.3 771.358,1304.29 879.359,1304.29 879.359,1280.3 "/>
   <polygon id="_440607592" class="fil8" points="717.358,1341.75 717.358,1352.26 825.359,1352.26 825.359,1341.75 "/>
   <polygon id="_440607424" class="fil11" points="729.89,1184.44 729.89,1208.44 663.358,1208.44 663.358,1184.44 "/>
   <polygon id="_440606200" class="fil11" points="729.89,1232.01 729.89,1256.01 663.358,1256.01 663.358,1232.01 "/>
   <polygon id="_440606272" class="fil11" points="729.89,1280.3 729.89,1304.29 663.358,1304.29 663.358,1280.3 "/>
   <ellipse id="_440609848" class="fil8" cx="771.358" cy="1005.48" rx="28.8027" ry="28.8027"/>
   <path id="_440605288" class="fil10" d="M771.358 1005.48l0 -28.8024c15.9083,0 28.8024,12.8953 28.8024,28.8024 0,15.9083 -12.8941,28.8024 -28.8024,28.8024l0 -28.8024z"/>
   <circle id="_440604496" class="fil7" cx="771.358" cy="1005.48" r="13.0181"/>
   <circle id="_440604016" class="fil10" cx="771.358" cy="1005.48" r="6.04134"/>
   <circle id="_440603176" class="fil12" cx="841.907" cy="982.041" r="6.41339"/>
   <circle id="_440603032" class="fil13" cx="841.907" cy="1029.38" r="6.41339"/>
   <rect id="_440603272" class="fil6" x="1187.07" y="920.26" width="216" height="432"/>
   <rect id="_440602648" class="fil7" x="1295.07" y="920.26" width="108" height="432"/>
   <rect id="_440602504" class="fil7" x="1187.07" y="1136.45" width="216" height="23.9997"/>
   <rect id="_440601136" class="fil8" x="1187.07" y="969.573" width="216" height="23.9997"/>
   <rect id="_440579344" class="fil8" x="1187.07" y="1017.39" width="216" height="23.9997"/>
   <polygon id="_440599984" class="fil9" points="1295.07,1136.45 1295.07,1160.45 1403.07,1160.45 1403.07,1136.45 "/>
   <polygon id="_440607064" class="fil9" points="1295.07,993.479 1295.07,1017.48 1403.07,1017.48 1403.07,993.479 "/>
   <polygon id="_440599552" class="fil10" points="1295.07,993.479 1295.07,969.48 1403.07,969.48 1403.07,993.479 "/>
   <polygon id="_440595544" class="fil10" points="1295.07,1041.48 1295.07,1017.48 1403.07,1017.48 1403.07,1041.48 "/>
   <polygon id="_440595616" class="fil11" points="1253.6,1136.45 1253.6,1160.45 1187.07,1160.45 1187.07,1136.45 "/>
   <rect id="_440592928" class="fil7" x="1187.07" y="1184.44" width="216" height="23.9997"/>
   <rect id="_440600032" class="fil7" x="1187.07" y="1232.01" width="216" height="23.9997"/>
   <rect id="_440594152" class="fil7" x="1187.07" y="1280.3" width="216" height="23.9997"/>
   <polygon id="_440603152" class="fil9" points="1295.07,1184.44 1295.07,1208.44 1403.07,1208.44 1403.07,1184.44 "/>
   <polygon id="_440606440" class="fil9" points="1295.07,1232.01 1295.07,1256.01 1403.07,1256.01 1403.07,1232.01 "/>
   <polygon id="_440608480" class="fil9" points="1295.07,1280.3 1295.07,1304.29 1403.07,1304.29 1403.07,1280.3 "/>
   <polygon id="_440609632" class="fil8" points="1241.07,1341.75 1241.07,1352.26 1349.07,1352.26 1349.07,1341.75 "/>
   <polygon id="_440605768" class="fil11" points="1253.6,1184.44 1253.6,1208.44 1187.07,1208.44 1187.07,1184.44 "/>
   <polygon id="_440601352" class="fil11" points="1253.6,1232.01 1253.6,1256.01 1187.07,1256.01 1187.07,1232.01 "/>
   <polygon id="_440579752" class="fil11" points="1253.6,1280.3 1253.6,1304.29 1187.07,1304.29 1187.07,1280.3 "/>
   <ellipse id="_440579944" class="fil8" cx="1295.07" cy="1005.48" rx="28.8027" ry="28.8027"/>
   <path id="_440607352" class="fil10" d="M1295.07 1005.48l0 -28.8024c15.9083,0 28.8024,12.8953 28.8024,28.8024 0,15.9083 -12.8941,28.8024 -28.8024,28.8024l0 -28.8024z"/>
   <circle id="_440596624" class="fil7" cx="1295.07" cy="1005.48" r="13.0181"/>
   <circle id="_440610256" class="fil10" cx="1295.07" cy="1005.48" r="6.04134"/>
   <circle id="_440604208" class="fil12" cx="1365.62" cy="982.041" r="6.41339"/>
   <circle id="_440601112" class="fil13" cx="1365.62" cy="1029.38" r="6.41339"/>
  </g>
 </g>
</svg>
